<?xml version="1.0" standalone="no"?>
<!DOCTYPE svg PUBLIC "-//W3C//DTD SVG 20010904//EN"
 "http://www.w3.org/TR/2001/REC-SVG-20010904/DTD/svg10.dtd">
<svg version="1.0" xmlns="http://www.w3.org/2000/svg"
 width="450.000000pt" height="450.000000pt" viewBox="0 0 450.000000 450.000000"
 preserveAspectRatio="xMidYMid meet">
<metadata>
Created by potrace 1.16, written by Peter Selinger 2001-2019
</metadata>
<g transform="translate(0.000000,450.000000) scale(0.100000,-0.100000)"
fill="#000000" stroke="none">
<path d="M2130 4293 c-8 -3 -30 -22 -48 -42 -18 -20 -30 -30 -26 -22 4 9 2 12
-7 9 -8 -3 -13 -9 -12 -14 1 -5 -8 -10 -20 -10 -12 -1 -58 -6 -102 -13 -44 -6
-99 -9 -122 -8 -24 1 -43 -2 -43 -7 0 -9 183 0 218 10 14 5 15 4 2 -4 -9 -6
-60 -13 -115 -17 -165 -10 -183 -14 -220 -47 -19 -16 -35 -37 -35 -45 0 -11 3
-13 13 -5 24 20 100 33 251 42 179 11 227 21 316 66 107 55 125 79 75 102 -27
12 -98 15 -125 5z"/>
<path d="M1296 4013 c4 -16 14 -38 22 -50 14 -23 14 -23 -39 -24 -30 -1 -58
-1 -62 0 -5 1 -6 -2 -4 -6 2 -5 -9 -19 -26 -33 -17 -14 -28 -19 -24 -12 18 27
-11 9 -48 -30 l-40 -43 40 35 40 35 -40 -43 c-38 -41 -53 -53 -40 -32 3 6 3
10 0 10 -10 0 -110 -91 -110 -100 0 -5 -4 -12 -9 -17 -5 -5 -6 -3 -2 5 9 15
10 15 -39 -3 -22 -8 -33 -14 -25 -15 13 0 13 -2 1 -9 -10 -6 -23 -5 -35 1 -12
6 -23 10 -26 9 -12 -5 -73 -68 -92 -95 -26 -36 -13 -46 51 -39 61 7 115 35
182 97 30 28 80 72 110 98 30 26 67 59 84 75 50 47 112 79 183 93 26 5 85 25
132 44 47 20 93 36 102 36 22 0 29 12 18 30 -6 10 -12 11 -22 3 -7 -7 -45 -17
-83 -23 -39 -6 -87 -15 -108 -20 -35 -7 -40 -6 -59 21 -27 37 -40 37 -32 2z"/>
<path d="M2065 3640 c-228 -23 -531 -116 -695 -213 -32 -19 -88 -47 -125 -62
-58 -23 -80 -26 -144 -23 l-76 3 4 -45 c7 -93 53 -160 110 -160 18 0 45 16 82
48 98 87 212 155 281 167 35 7 37 5 40 -22 3 -26 7 -29 53 -35 89 -11 212 -9
223 5 5 6 13 37 16 68 l7 56 57 26 c95 45 174 60 287 55 79 -4 112 -11 157
-31 64 -29 82 -54 75 -107 -9 -67 23 -85 132 -75 110 10 121 13 121 41 0 42
60 28 106 -25 23 -25 35 -56 48 -113 10 -44 32 -33 79 40 74 114 74 112 31
112 -32 0 -43 7 -73 42 -68 79 -115 118 -175 147 -173 82 -419 122 -621 101z"/>
<path d="M871 3187 c0 -10 -5 -15 -11 -12 -12 7 -2 -22 17 -50 9 -14 13 -15
13 -5 0 13 1 13 9 0 6 -8 8 -17 5 -21 -2 -4 3 -12 11 -19 8 -7 15 -10 15 -6 0
8 79 -35 120 -66 30 -22 60 -82 60 -121 0 -22 32 -93 70 -155 11 -18 20 -36
20 -40 1 -18 12 -42 21 -42 5 0 8 -4 7 -8 -2 -5 16 -33 39 -63 23 -30 56 -71
71 -91 16 -21 33 -34 37 -30 5 4 5 1 1 -5 -4 -7 -3 -21 2 -30 5 -10 12 -32 15
-49 l6 -31 -50 5 c-32 3 -49 0 -49 -7 0 -6 -22 -11 -52 -12 -43 -1 -48 -3 -28
-10 17 -5 8 -6 -29 -3 -35 4 -51 3 -47 -4 3 -6 0 -13 -6 -15 -25 -10 29 -7
117 8 110 18 128 19 119 3 -4 -7 -3 -8 5 -4 6 4 8 12 5 18 -4 7 7 9 34 6 22
-2 38 0 36 4 -3 5 0 8 5 8 6 0 11 -5 11 -10 0 -6 7 -10 16 -8 10 2 19 -3 22
-11 3 -9 0 -11 -8 -6 -8 5 -11 4 -7 -2 4 -6 -18 -13 -58 -17 -35 -3 -108 -18
-162 -32 -54 -14 -138 -35 -188 -46 -49 -11 -103 -26 -119 -34 -16 -8 -38 -14
-49 -14 -11 0 -25 -7 -31 -16 -6 -8 -43 -23 -81 -33 -78 -19 -90 -33 -100
-112 -3 -24 -8 -56 -11 -71 -5 -20 -2 -29 10 -34 9 -3 16 -12 16 -20 0 -8 9
-14 19 -14 28 0 52 -11 45 -21 -3 -5 6 -9 19 -9 15 0 41 -15 64 -37 76 -73
146 -133 154 -133 4 0 13 -8 18 -17 9 -15 11 -12 11 17 1 29 4 24 15 -26 7
-34 21 -77 30 -95 10 -19 12 -29 6 -23 -7 6 -20 33 -31 60 -10 27 -19 44 -20
37 0 -6 4 -23 10 -38 8 -21 6 -29 -13 -47 -70 -70 -90 -166 -55 -263 19 -51
28 -58 52 -38 21 18 21 18 2 -4 -10 -13 -22 -20 -26 -18 -4 3 -16 -7 -25 -21
-9 -15 -12 -23 -5 -19 8 5 11 3 8 -6 -3 -8 -11 -14 -19 -14 -8 0 -13 -8 -11
-18 2 -10 -3 -16 -10 -15 -8 2 -12 -6 -11 -20 2 -13 -1 -21 -7 -17 -6 3 -7 -1
-4 -10 5 -13 11 -8 28 20 12 20 25 32 30 28 4 -4 5 -1 1 7 -3 9 12 34 38 62
23 26 41 52 39 58 -2 6 0 10 5 9 19 -3 33 2 33 12 0 5 -6 7 -12 3 -8 -5 -7 -1
1 10 14 16 16 17 27 1 11 -15 14 -14 33 6 51 55 263 39 361 -27 32 -21 40 -23
100 -14 97 14 194 12 245 -6 68 -23 86 -17 101 35 12 40 11 47 -6 71 -26 37
-96 68 -170 76 -36 3 -87 17 -114 30 -60 29 -75 30 -52 6 9 -11 42 -25 74 -33
l57 -14 -42 -3 c-25 -2 -57 4 -80 15 -21 10 -52 17 -70 15 -36 -4 -53 -31 -24
-39 11 -3 22 -12 25 -20 5 -12 -3 -13 -52 -8 -31 4 -67 12 -79 19 -62 32 -131
76 -153 98 -14 14 -42 31 -64 39 -22 8 -42 23 -47 36 -4 12 -17 24 -27 27 -15
5 -25 25 -38 74 -9 37 -21 71 -26 77 -40 45 65 260 183 375 38 36 67 54 104
64 146 42 200 39 201 -10 1 -41 -21 -70 -76 -100 -77 -42 -80 -56 -44 -195
l17 -67 86 -5 c68 -4 95 -1 127 13 23 10 45 23 48 29 14 21 44 11 100 -35 l55
-46 52 13 c49 13 50 14 30 30 -20 16 -20 17 -1 37 19 20 19 20 -19 15 -35 -5
-43 -1 -77 33 -22 22 -88 100 -149 174 -60 74 -120 143 -132 153 -13 10 -23
24 -23 31 0 21 -61 96 -72 89 -7 -3 -8 -1 -4 5 4 6 -8 31 -27 55 -18 24 -39
58 -47 77 -14 33 -13 34 25 67 22 19 46 32 54 31 12 -3 391 -487 479 -612 30
-44 58 -61 48 -29 -5 16 2 22 49 37 64 20 63 5 8 156 -20 52 -53 123 -74 158
-22 35 -36 68 -33 73 3 5 40 9 82 9 42 0 133 5 201 12 91 8 128 9 141 0 14 -8
25 -8 44 1 14 7 26 15 26 20 0 13 21 7 42 -13 16 -15 34 -20 67 -18 l46 1 -50
7 -50 7 63 1 c43 2 62 6 62 15 0 7 5 51 11 97 6 47 12 90 12 97 0 7 4 10 8 7
4 -2 13 4 18 15 6 10 33 43 61 73 53 55 86 106 76 116 -3 3 -6 -1 -6 -8 0 -7
-3 -10 -7 -7 -3 4 -16 -4 -28 -18 -28 -29 -185 -105 -219 -105 -14 0 -27 -4
-30 -9 -3 -5 -23 -12 -43 -15 -21 -4 -63 -17 -93 -28 -47 -18 -83 -22 -256
-26 -143 -3 -207 -1 -223 8 -12 6 -59 18 -104 25 -145 24 -176 31 -191 44 -10
8 -16 9 -21 1 -4 -7 -13 -5 -28 5 -12 8 -31 15 -42 15 -11 0 -42 12 -70 26
-54 28 -195 82 -235 91 -69 16 -110 73 -107 149 l2 49 -87 44 c-55 27 -85 48
-81 55 3 6 3 8 -1 5 -10 -9 -68 50 -60 62 3 5 1 9 -5 9 -5 0 -12 8 -14 18 -4
16 -5 16 -6 -1z"/>
<path d="M2534 1723 c-3 -10 -10 -29 -15 -43 -4 -14 -10 -47 -13 -73 -3 -35
-10 -53 -25 -63 -12 -9 -21 -25 -21 -37 -1 -25 -39 -110 -40 -88 0 8 -2 12 -5
9 -10 -9 6 -55 18 -55 7 -1 46 -9 87 -19 41 -9 101 -18 132 -18 32 -1 63 -7
70 -14 9 -9 14 -55 16 -155 4 -173 -6 -214 -59 -240 -73 -35 -213 -69 -299
-73 -144 -5 -364 -25 -385 -35 -30 -13 -142 -29 -210 -29 -42 0 -56 -3 -45
-10 8 -5 104 -10 217 -10 196 0 206 1 355 35 84 20 177 43 206 51 29 9 56 13
59 10 4 -3 1 -6 -6 -6 -7 0 -1 -10 12 -22 13 -13 28 -31 33 -40 5 -10 60 -71
122 -137 121 -129 185 -175 292 -211 57 -20 79 -22 185 -17 66 3 134 10 150
16 25 9 20 10 -25 4 -158 -22 -274 2 -327 66 -46 55 -55 111 -57 345 -1 170 2
210 17 258 10 31 17 71 15 90 -2 27 -8 34 -30 36 -15 2 -41 -4 -58 -13 -28
-15 -32 -14 -55 2 -18 14 -24 29 -27 63 -4 66 8 86 78 125 35 20 66 40 69 45
4 6 11 7 17 4 6 -4 8 -2 5 3 -4 6 0 14 9 17 12 5 15 2 10 -9 -3 -9 -2 -14 3
-10 5 3 11 2 14 -2 2 -5 2 -2 1 5 -2 7 3 15 11 18 8 3 17 14 20 25 4 11 10 17
15 14 5 -3 12 0 16 6 5 8 3 9 -6 4 -10 -6 -12 -4 -6 11 5 13 -2 10 -26 -12
-44 -42 -63 -51 -123 -58 -27 -3 -44 -3 -37 0 7 3 25 17 39 30 25 23 25 24 4
24 -11 0 -21 -4 -21 -9 0 -16 -43 -20 -127 -13 -59 6 -99 4 -144 -7 -58 -14
-62 -14 -75 4 -8 10 -14 29 -14 42 0 29 29 41 124 51 l70 7 -35 16 c-19 9 -47
21 -63 25 -16 5 -32 16 -36 24 -21 46 -29 55 -49 58 -13 2 -23 -3 -27 -15z"/>
<path d="M2170 1485 c-11 -13 -30 -15 -112 -10 -98 7 -116 1 -77 -23 12 -8 18
-9 14 -3 -4 7 13 11 50 11 l57 0 82 -85 c89 -93 116 -104 166 -65 l25 20 -27
0 c-38 0 -99 57 -129 120 -26 54 -30 58 -49 35z"/>
<path d="M917 1046 c-5 -11 -3 -15 5 -10 8 5 9 -1 3 -22 -4 -16 -11 -65 -16
-109 l-8 -80 3 90 c3 72 1 83 -6 55 -6 -19 -8 -69 -5 -110 8 -118 70 -322 92
-303 4 5 5 3 1 -4 -8 -14 29 -93 44 -93 5 0 7 -6 4 -14 -3 -8 4 -20 15 -28 23
-16 104 -162 95 -171 -7 -6 33 -62 44 -63 4 0 26 -6 49 -13 30 -10 56 -11 100
-4 l58 10 -84 -1 c-83 0 -84 0 -112 34 -16 18 -26 37 -24 41 3 4 1 9 -5 11 -5
1 -10 23 -11 48 -1 64 -10 124 -18 114 -7 -11 -62 -13 -55 -3 7 12 -7 39 -21
39 -14 0 -24 19 -32 60 -2 13 -13 39 -24 56 -11 18 -18 36 -17 41 6 20 -35
142 -46 136 -8 -4 -8 -3 0 6 7 8 8 31 2 69 -10 74 -6 195 7 204 6 5 3 8 -7 8
-9 0 -18 5 -20 12 -3 7 -7 5 -11 -6z"/>
</g>
</svg>
