<svg xmlns="http://www.w3.org/2000/svg" enable-background="new 0 0 3000 3000" viewBox="0 0 3000 3000"><circle cx="1500" cy="1500" r="1475" fill="#333"/><path fill="#fff" d="M2910.64,1500c0,41.25-1.8,81.99-5.22,122.39c-20.11,233.92-97.4,451.57-217.65,638.92
			c-13.44,20.97-27.56,41.6-42.11,61.88c-0.17,0.26-0.34,0.51-0.51,0.77c-7.19,9.93-14.47,19.77-22,29.44
			c-74.8,98.43-162.45,186.75-260.19,262.5c-61.03,47.24-125.9,89.61-194.37,126.41c-7.96,4.28-15.92,8.47-23.97,12.58
			c-83.62,43.14-172.03,78.06-264.3,103.73c-14.64,4.11-29.27,7.96-44.08,11.64c-19.17,4.62-38.51,8.99-58.03,12.84
			c-85.76,17.2-174.34,26.53-264.98,27.39h-0.43c-4.28,0.09-8.56,0.09-12.84,0.09c-75.32,0-149.27-5.91-221.5-17.38
			c-14.46-2.22-28.93-4.71-43.31-7.45c-2.91-0.6-5.91-1.11-8.9-1.8c-102.19-20.03-200.28-51.09-293.23-92.01
			c-13.87-6.08-27.56-12.32-41.17-18.83c-28.16-13.52-55.89-27.9-83.02-43.31c-71.72-40.31-139.6-86.79-202.84-138.74
			c-3.94-3.26-7.96-6.59-11.9-9.93c-61.45-51.52-118.46-108.19-170.24-169.3c-11.3-13.27-22.34-26.79-33.12-40.57
			c-22-27.82-42.88-56.57-62.65-86.01C177.36,2060.86,89.46,1790.74,89.46,1500c0-779.03,631.47-1410.59,1410.51-1410.59
			C2279.08,89.41,2910.64,720.97,2910.64,1500z"/><path fill="#2b91cc" d="M2645.14,2323.96c-7.19,9.93-14.47,19.77-22,29.44c-74.8,98.43-162.45,186.75-260.19,262.5
					c-61.03,47.24-125.9,89.61-194.37,126.41c-7.96,4.28-15.92,8.47-23.97,12.58c-83.62,43.14-172.03,78.06-264.3,103.73
					c-14.64,4.11-29.27,7.96-44.08,11.64c-19.17,4.62-38.51,8.99-58.03,12.84c-85.76,17.2-174.34,26.53-264.98,27.39h-0.43
					c-4.28,0.09-8.56,0.09-12.84,0.09c-75.32,0-149.27-5.91-221.5-17.38c-14.46-2.22-28.93-4.71-43.31-7.45
					c-2.91-0.6-5.91-1.11-8.9-1.8c-102.19-20.03-200.28-51.09-293.23-92.01c-13.87-6.08-27.56-12.32-41.17-18.83
					c-28.16-13.52-55.89-27.9-83.02-43.31c-71.72-40.31-139.6-86.79-202.84-138.74c-3.94-3.26-7.96-6.59-11.9-9.93
					c-61.45-51.52-118.46-108.19-170.24-169.3c-11.3-13.27-22.34-26.79-33.12-40.57c95.09-238.54,193.86-424.26,325.24-545.29
					c87.73-71.64,198.65-108.36,312.23-108.36h248.38c0.09,0.09,0.09,0.09,0.17,0.17c166.64,183.5,236.06,202.85,443.95,7.96h0.26
					l330.72,9.42c1.11,0.17,2.31,0.26,3.42,0.26c157.06,8.73,299.82,94.75,385.66,226.73
					C2508.89,2066.94,2579.84,2190.1,2645.14,2323.96z"/><path fill="#f7c19b" d="M1499.33,1915.34L1499.33,1915.34c-123.88,0-224.3-100.42-224.3-224.3v-174.19h448.6v174.19
					C1723.63,1814.91,1623.21,1915.34,1499.33,1915.34z"/><path fill="#f7c19b" d="M1908.9,1316.31c-73.88,382.04-405.3,384.43-405.3,384.43s-331.42-2.39-405.3-384.43
					c0,0-168.27-115.6-35.23-212.39l32.83-298.25c0,0,102.61-166.9,109.79-166.9s297.9,57.12,297.9,57.12s290.72-57.12,297.9-57.12
					s109.79,166.9,109.79,166.9l32.83,298.25C2077.17,1200.71,1908.9,1316.31,1908.9,1316.31z"/><path fill="#37424c" d="M1955.99,848.23c-24.63,92.04,4.45,162.74-11.87,255.68l-19.02,1.87c7.16-181.35-91.86-285.71-91.86-285.71
					c-112.54,44.89-245.7-84.47-295.85-25.61c-135.24,158.74-266.82,16.49-288.83-26.48c2.38,140.79-128.94,138.32-128.94,138.32
					l-38.3,197.73h-18.23l-51.22-213.29c-100.29-363.45,184.26-342.69,184.26-342.69s273.87-364.96,572.34-37.61
					C1768.47,510.43,2047.24,507.27,1955.99,848.23z"/></svg>