<svg xmlns="http://www.w3.org/2000/svg" enable-background="new 0 0 3000 3000" viewBox="0 0 3000 3000"><circle cx="1500" cy="1500" r="1475" fill="#333"/><path fill="#fff" d="M2910.64,1500.01c0,41.26-1.8,82-5.22,122.4c-20.11,233.91-97.4,451.56-217.65,638.92
			c-13.44,20.97-27.56,41.59-42.11,61.8c-11.04,15.32-22.34,30.38-34.07,45.28c-72.24,92.43-155.86,175.63-248.64,247.52
			c-30.47,23.62-61.97,45.96-94.32,67.1h-0.08c-32.44,21.06-65.73,40.91-99.97,59.32c-1.54,0.85-3.08,1.71-4.62,2.48h-0.08
			c-6.42,3.42-12.75,6.76-19.26,10.1c-83.62,43.05-172.03,78.06-264.3,103.73c-14.64,4.11-29.27,7.96-44.08,11.55
			c-19.17,4.71-38.51,9.07-58.03,12.92c-1.97,0.43-3.85,0.77-5.82,1.12c-64.28,12.67-130.18,20.88-197.28,24.31
			c-20.54,1.11-41.17,1.8-61.88,1.97h-0.43c-4.28,0.08-8.56,0.08-12.84,0.08c-26.36,0-52.55-0.68-78.48-2.22
			c-48.36-2.57-96.03-7.7-143.02-15.15c-14.47-2.22-28.93-4.71-43.31-7.45c-2.4-0.51-4.88-0.94-7.36-1.45
			c-0.51-0.08-1.03-0.25-1.54-0.34c-102.19-20.03-200.28-51.18-293.23-92.01c-13.78-6.08-27.56-12.32-41.08-18.83
			c-28.24-13.52-55.98-27.98-83.11-43.3c-7.96-4.45-15.83-8.99-23.62-13.61c-30.13-17.72-59.57-36.55-88.24-56.49
			c-31.24-21.65-61.62-44.59-90.98-68.73c-3.94-3.25-7.96-6.5-11.9-9.84c-87.9-73.69-166.56-157.83-234.26-250.52
			c-10.87-14.89-21.4-30.04-31.75-45.36C177.36,2060.9,89.46,1790.78,89.46,1500.03C89.46,721,720.94,89.44,1499.96,89.44
			C2279.08,89.42,2910.64,720.98,2910.64,1500.01z"/><path fill="#2f354f" d="M1525.55,2719.99l-42.02,76.09l-62.05,112.29c-48.36-2.57-96.03-7.7-143.02-15.15
			c-14.47-2.22-28.93-4.71-43.31-7.45c-2.4-0.51-4.88-0.94-7.36-1.45c-0.51-0.08-1.03-0.25-1.54-0.34
			c-102.19-20.03-200.28-51.18-293.23-92.01c-13.78-6.08-27.56-12.32-41.08-18.83c-28.24-13.52-55.98-27.98-83.11-43.3
			c-7.96-4.45-15.83-8.99-23.62-13.61c4.45-62.82,6.59-121.45,6.93-175.71c0.77-115.54-6.51-211.75-16.6-288.44
			c-19.6-150.38-49.56-225.78-49.56-225.78h523.46l6.85,17.04l217.22,545.88L1525.55,2719.99z"/><path fill="#30364e" d="M1256.29,2043.33l-54.01,141.05l-29.7,15.66l-187.35,98.77l-193.09,241.7l-95.18,119.22
			c-31.24-21.65-61.62-44.59-90.98-68.73c-3.94-3.25-7.96-6.5-11.9-9.84c-87.9-73.69-166.56-157.83-234.26-250.52L494.54,2123
			c22.34-30.98,44.34-59.23,66.25-85.07l0.09-0.08c186.58-221.33,353.91-264.64,476.47-250.61c32.52,3.6,61.88,11.38,87.64,20.88
			c32.87,12.16,59.91,27.13,80.03,40.4c27.22,17.8,41.94,32.44,41.94,32.44l0.94,16.35l1.71,29.96l4.79,83.36v0.09L1256.29,2043.33z
			"/><path fill="#2f354f" d="M2154.8,2540.51c0.43,62.48,3.17,130.52,9.07,204.3c-6.42,3.42-12.75,6.76-19.26,10.1
				c-83.62,43.05-172.03,78.06-264.3,103.73c-14.64,4.11-29.27,7.96-44.08,11.55c-19.17,4.71-38.51,9.07-58.03,12.92
				c-1.97,0.43-3.85,0.77-5.82,1.12c-64.28,12.67-130.18,20.88-197.28,24.31l-91.58-112.47l-62.05-76.09l52.04-130.78l217.22-545.72
				v-0.17l6.76-17.04h523.55C2221.05,2026.29,2152.57,2198.33,2154.8,2540.51z"/><path fill="#fff" d="M1772.39,2884.24c-64.28,12.67-130.18,20.88-197.28,24.31c-20.54,1.11-41.17,1.8-61.88,1.97h-0.43
					c-4.28,0.08-8.56,0.08-12.84,0.08c-26.36,0-52.55-0.68-78.48-2.22c-48.36-2.57-96.03-7.7-143.02-15.15
					c-14.47-2.22-28.93-4.71-43.31-7.45c-2.4-0.51-4.88-0.94-7.36-1.45c8.3-270.72-20.28-505.4-55.2-684.29
					c-2.4-12.32-4.88-24.3-7.28-36.12c-10.7-51.1-21.74-97.14-32.35-137.63c-24.39-92.78-46.56-156.03-56.75-183.16l-0.09-0.26
					c-3.59-9.75-5.65-14.81-5.65-14.81l54.52-19.94l68.22-24.99l65.47-24.05l198.14-72.5l253.69,122.9
					c-2.82,23.02-5.31,45.7-7.53,68.22v0.43c-3.59,35.01-6.42,69.5-8.73,103.48l-0.09,2.14c-1.37,20.11-2.57,39.97-3.42,59.57v0.17
					C1674.56,2381.83,1716.07,2665.13,1772.39,2884.24z"/><path fill="#232121" d="M1688.04,471.48c0,0-344.46-429.4-759.71,160.44c0,0-154.54,283.12-136.84,679.49
						c0,0-205.27,117.97-87.3,302c0,0-9.44-115.61,82.58-136.84l-16.52,136.84l-102.62,84.94h79.03c0,0-323.23,204.08-121.51,501.36
						c0,0-38.93-162.79,74.32-194.65c0,0-70.78,201.72,159.26,293.74c0,0-77.86-261.88,134.48-215.88c0,0,17.7,162.8-88.48,201.72
						c0,0,414.07-28.31,364.52-488.38l329.13,10.62l104.65,70.92c0,0,291.72-39.07,185.55,240.51c0,0,138.02,56.63,166.33-173.41
						c0,0,69.6,130.94-48.37,230.04c0,0,179.31,77.86,175.77-371.6c0,0,100.27-121.51-142.74-274.86c0,0-58.98-89.66-33.03-174.59
						l44.83,11.8c0,0-125.05-92.01-84.94-384.57C1982.05,687.9,1908.72,495.88,1688.04,471.48z"/><path fill="#eab794" d="M1199.68,1755.86c-19.28,54.84-18.08,158.3,224.12,213.8c0,0,175.68,7.64,276.22-88.75
						c19.4-18.6,23.81-48.04,10.5-71.39l-31.54-55.37c-35.77-62.8-54.03-134.04-52.89-206.3l0.61-38.26
						c0,0,148.64-88.47,156.9-218.24c0,0,142.48-67.6,127.66-217.46c-2.53-25.54-21.09-48.77-46.55-51.95
						c-22.41-2.8-48.07,10.47-61.05,74.76c0,0,13.78-341.01-193.24-420.64c-87.24-33.56-188.25-46.78-277.91-14.56
						c-227.64,81.83-260.97,388.08-237.35,593.9c7.46,65.03,22.78,130.58,60.62,185.2c7.64,11.03,67.62,61.22,67.48,67.22
						l-3.21,144.18C1219.24,1687.55,1211.47,1722.32,1199.68,1755.86z"/><path fill="#30364e" d="M2611.59,2368.4c-72.24,92.43-155.86,175.63-248.64,247.52c-30.47,23.62-61.97,45.96-94.32,67.1h-0.08
				l-113.75-142.5l-193.09-241.7l-217.05-114.43l-53.92-140.88v-0.17l3.42-59.57l0.09-2.14l5.73-100.65c0,0,0.43-0.43,1.11-1.11
				c0.51-0.43,1.11-1.03,1.88-1.71c0.09-0.08,0.26-0.17,0.43-0.34v-0.08c18.49-16.69,110.67-92.95,248.04-92.95
				c67.19,0,145.07,18.23,230.49,70.44c83.96,51.35,175.2,135.58,270.55,267.81L2611.59,2368.4z"/><path fill="#232121" d="M1220.04,1652c0,0,58.7,95.85,51.71,261.61l-102.54,63.13l-145.1-208.59L1220.04,1652z"/></svg>